<svg width="147" height="24" viewBox="0 0 147 24" fill="none" xmlns="http://www.w3.org/2000/svg">
<path fill-rule="evenodd" clip-rule="evenodd" d="M8.99944 3.04224C8.01889 3.04224 7.10212 3.52611 6.54719 4.33693C5.98558 5.15736 5.8786 6.19061 6.25348 7.17116C6.43371 7.6417 6.73978 8.07214 7.10857 8.48645L3.12128 9.84921L11.3717 12.6592L19.6221 9.84921L15.6086 8.48162C15.9753 8.06905 16.2795 7.64028 16.459 7.17145C16.834 6.19031 16.727 5.15736 16.1654 4.33693C15.6107 3.52611 14.6939 3.04224 13.7132 3.04224C12.906 3.04224 12.1091 3.3654 11.4088 3.97708L11.3565 4.02861L11.3176 3.98989C10.6034 3.3654 9.80662 3.04224 8.99944 3.04224Z" fill="#20C3AF"/>
<path d="M14.461 18.1339C14.5334 18.1339 14.6058 18.1096 14.6782 18.0854L20.1543 15.9295V20.4352C20.1543 20.7501 19.9613 21.0166 19.6718 21.1134L11.9763 23.7297V15.1543L13.9786 17.8916C14.0992 18.037 14.268 18.1339 14.461 18.1339Z" fill="#20C3AF"/>
<path fill-rule="evenodd" clip-rule="evenodd" d="M0.857512 13.822L8.43244 16.8016L10.7725 13.604L2.7633 10.8909L0.857512 13.822ZM8.76792 17.8917C8.6473 18.037 8.47843 18.1339 8.28544 18.1339C8.21307 18.1339 8.14069 18.1097 8.06832 18.0855L2.59218 15.9295V20.4595C2.59218 20.7501 2.78517 21.0408 3.07466 21.1377L10.7702 23.7539V15.1544L8.76792 17.8917Z" fill="#44D7B6"/>
<path d="M12.338 13.604L20.3471 10.8909L22.2529 13.822L14.678 16.8016L12.338 13.604Z" fill="#20C3AF"/>
<path d="M1.48502 0.774441C1.81023 0.289436 2.34749 1.78329e-08 2.92212 1.78329e-08C3.39515 1.78329e-08 3.86206 0.193306 4.28063 0.566856L4.3034 0.590017L4.33407 0.559193C4.74449 0.193306 5.21148 0 5.68451 0C6.25923 0 6.79649 0.289436 7.12161 0.774441C7.45072 1.26519 7.51342 1.88308 7.29364 2.46996C7.1109 2.95705 6.70771 3.37188 6.2752 3.78914C6.16 3.90007 6.04345 4.01135 5.92273 4.12647C5.5214 4.50907 5.06664 4.94253 4.4655 5.55815L4.4254 5.59925C4.39269 5.63251 4.3486 5.65114 4.30272 5.65114C4.30136 5.65114 4.29992 5.65114 4.29856 5.65114C4.25124 5.64992 4.2063 5.62902 4.17436 5.59315C4.1634 5.58096 4.15329 5.57068 4.14114 5.55815C3.53974 4.94218 3.08455 4.50837 2.68306 4.12559C2.56276 4.01083 2.44637 3.8999 2.33118 3.78896C1.89876 3.37153 1.49556 2.95653 1.31291 2.46978C1.09321 1.88325 1.15591 1.26519 1.48502 0.774441Z" fill="#FF9C0E"/>
<path fill-rule="evenodd" clip-rule="evenodd" d="M45.2985 21V13.1919C45.2985 12.5757 45.3846 12.0243 45.5569 11.5378C45.7292 11.0514 45.9671 10.646 46.2706 10.3216C46.5741 9.9973 46.931 9.75001 47.3411 9.57974C47.7513 9.40946 48.1861 9.32433 48.6455 9.32433C49.7283 9.32433 50.5404 9.6446 51.0818 10.2851C51.6233 10.9257 51.894 11.8054 51.894 12.9243V21H55.2902V12.5595C55.2902 10.646 54.7857 9.15406 53.7766 8.08379C52.7676 7.01352 51.369 6.47838 49.5806 6.47838C48.6619 6.47838 47.8374 6.65676 47.1073 7.01352C46.3772 7.37027 45.7661 7.85676 45.2739 8.47298V3H41.9515V21H45.2985ZM34.4009 20.9999C35.4579 20.9999 36.3639 20.8564 37.1189 20.5693C37.874 20.2822 38.499 19.9113 38.9939 19.4567C39.4889 19.0021 39.8538 18.5077 40.0887 17.9733C40.3236 17.439 40.441 16.9246 40.441 16.4301C40.441 15.6964 40.2858 15.0863 39.9754 14.5998C39.665 14.1133 39.2582 13.7146 38.7548 13.4036C38.2515 13.0925 37.6936 12.8453 37.0812 12.6619C36.4688 12.4784 35.8606 12.3309 35.2566 12.2192C34.1492 11.9959 33.3103 11.7846 32.7399 11.5852C32.1694 11.3858 31.8842 11.0549 31.8842 10.5923C31.8842 10.1935 32.0771 9.84263 32.463 9.53957C32.8489 9.23652 33.4445 9.08499 34.2499 9.08499C34.9546 9.08499 35.5754 9.22854 36.1123 9.51565C36.6492 9.80275 37.0686 10.1935 37.3706 10.688L40.2648 9.30032C39.6944 8.4071 38.9184 7.70129 37.9369 7.1829C36.9554 6.66452 35.7264 6.40532 34.2499 6.40532C33.3774 6.40532 32.5847 6.52096 31.8716 6.75224C31.1585 6.98352 30.5503 7.29854 30.047 7.6973C29.5436 8.09606 29.1535 8.55464 28.8767 9.07302C28.5999 9.59141 28.4614 10.1297 28.4614 10.688C28.4614 11.4217 28.6124 12.0318 28.9144 12.5183C29.2165 13.0048 29.6107 13.4036 30.0973 13.7146C30.5839 14.0256 31.1334 14.2689 31.7458 14.4443C32.3582 14.6198 32.9831 14.7713 33.6207 14.8989C34.0737 14.9946 34.5099 15.0823 34.9294 15.1621C35.3489 15.2418 35.7138 15.3415 36.0242 15.4612C36.3346 15.5808 36.5862 15.7203 36.7792 15.8799C36.9721 16.0394 37.0686 16.2467 37.0686 16.5019C37.0686 16.9645 36.8589 17.3632 36.4394 17.6982C36.02 18.0332 35.3908 18.2006 34.5519 18.2006C33.7465 18.2006 33.0419 18.0252 32.4379 17.6743C31.8338 17.3234 31.3557 16.8209 31.0033 16.167L27.8574 17.6025C28.4447 18.7031 29.2752 19.5445 30.349 20.1266C31.4228 20.7088 32.7734 20.9999 34.4009 20.9999ZM67.2903 20.4368C66.3766 20.8122 65.3965 20.9999 64.35 20.9999C63.3034 20.9999 62.3192 20.8122 61.3972 20.4368C60.4752 20.0613 59.6737 19.5421 58.9926 18.879C58.3115 18.216 57.7758 17.4411 57.3854 16.5544C56.995 15.6677 56.7998 14.7211 56.7998 13.7146C56.7998 12.6921 56.995 11.7375 57.3854 10.8508C57.7758 9.96411 58.3115 9.18924 58.9926 8.52621C59.6737 7.86318 60.4752 7.34395 61.3972 6.9685C62.3192 6.59305 63.3034 6.40532 64.35 6.40532C65.3965 6.40532 66.3766 6.59305 67.2903 6.9685C68.204 7.34395 69.0055 7.86318 69.6949 8.52621C70.3843 9.18924 70.9242 9.96411 71.3146 10.8508C71.7049 11.7375 71.9001 12.6921 71.9001 13.7146C71.9001 14.7211 71.7049 15.6677 71.3146 16.5544C70.9242 17.4411 70.3843 18.216 69.6949 18.879C69.0055 19.5421 68.204 20.0613 67.2903 20.4368ZM64.2219 18.081C63.6357 18.081 63.0861 17.9691 62.5731 17.7453C62.0602 17.5215 61.6205 17.2177 61.2541 16.834C60.8877 16.4503 60.5986 15.9986 60.3869 15.479C60.1752 14.9594 60.0694 14.4118 60.0694 13.8363C60.0694 13.2447 60.1752 12.6892 60.3869 12.1695C60.5986 11.6499 60.8877 11.1983 61.2541 10.8146C61.6205 10.4309 62.0602 10.1271 62.5731 9.90327C63.0861 9.67944 63.6357 9.56753 64.2219 9.56753C64.8082 9.56753 65.3537 9.67944 65.8585 9.90327C66.3634 10.1271 66.8031 10.4309 67.1776 10.8146C67.5522 11.1983 67.8453 11.6499 68.057 12.1695C68.2687 12.6892 68.3745 13.2447 68.3745 13.8363C68.3745 14.4118 68.2687 14.9594 68.057 15.479C67.8453 15.9986 67.5522 16.4503 67.1776 16.834C66.8031 17.2177 66.3634 17.5215 65.8585 17.7453C65.3537 17.9691 64.8082 18.081 64.2219 18.081ZM83.9421 10.9895L80.1286 20.7567H76.7917L71.8994 6.64856H75.3617L78.5981 16.3675L82.2862 6.64856H85.6481L89.2609 16.3916L92.6228 6.64856H96.0599L90.9167 20.7567H87.6552L83.9421 10.9895ZM100.338 21V3H97.0661V21H100.338ZM112.591 20.4368C111.677 20.8122 110.697 20.9999 109.651 20.9999C108.604 20.9999 107.62 20.8122 106.698 20.4368C105.776 20.0613 104.974 19.5421 104.293 18.879C103.612 18.216 103.076 17.4411 102.686 16.5544C102.296 15.6677 102.1 14.7211 102.1 13.7146C102.1 12.6921 102.296 11.7375 102.686 10.8508C103.076 9.96411 103.612 9.18924 104.293 8.52621C104.974 7.86318 105.776 7.34395 106.698 6.9685C107.62 6.59305 108.604 6.40532 109.651 6.40532C110.697 6.40532 111.677 6.59305 112.591 6.9685C113.505 7.34395 114.306 7.86318 114.996 8.52621C115.685 9.18924 116.225 9.96411 116.615 10.8508C117.006 11.7375 117.201 12.6921 117.201 13.7146C117.201 14.7211 117.006 15.6677 116.615 16.5544C116.225 17.4411 115.685 18.216 114.996 18.879C114.306 19.5421 113.505 20.0613 112.591 20.4368ZM109.776 18.081C109.189 18.081 108.64 17.9691 108.127 17.7453C107.614 17.5215 107.174 17.2177 106.808 16.834C106.441 16.4503 106.152 15.9986 105.941 15.479C105.729 14.9594 105.623 14.4118 105.623 13.8363C105.623 13.2447 105.729 12.6892 105.941 12.1695C106.152 11.6499 106.441 11.1983 106.808 10.8146C107.174 10.4309 107.614 10.1271 108.127 9.90327C108.64 9.67944 109.189 9.56753 109.776 9.56753C110.362 9.56753 110.907 9.67944 111.412 9.90327C111.917 10.1271 112.357 10.4309 112.731 10.8146C113.106 11.1983 113.399 11.6499 113.611 12.1695C113.822 12.6892 113.928 13.2447 113.928 13.8363C113.928 14.4118 113.822 14.9594 113.611 15.479C113.399 15.9986 113.106 16.4503 112.731 16.834C112.357 17.2177 111.917 17.5215 111.412 17.7453C110.907 17.9691 110.362 18.081 109.776 18.081ZM131.292 6.64856L125.842 20.7567H122.472L116.947 6.64856H120.44L124.182 16.5845L127.848 6.64856H131.292ZM138.755 20.9999C140.386 20.9999 141.771 20.6524 142.911 19.9575C144.051 19.2625 144.937 18.3478 145.569 17.2135L142.799 15.6797C142.449 16.4306 141.925 17.0297 141.226 17.4771C140.527 17.9244 139.704 18.1481 138.755 18.1481C137.557 18.1481 136.567 17.8446 135.785 17.2374C135.003 16.6303 134.496 15.8315 134.263 14.841H146.143V13.6187C146.143 12.5803 145.956 11.6217 145.582 10.743C145.207 9.86425 144.687 9.10137 144.022 8.45432C143.356 7.80727 142.562 7.304 141.638 6.94453C140.715 6.58506 139.712 6.40532 138.63 6.40532C137.566 6.40532 136.571 6.59704 135.648 6.98048C134.724 7.36392 133.921 7.88316 133.239 8.5382C132.557 9.19323 132.02 9.9681 131.629 10.8628C131.238 11.7575 131.043 12.7161 131.043 13.7386C131.043 14.7451 131.23 15.6917 131.604 16.5784C131.979 17.4651 132.503 18.236 133.177 18.891C133.851 19.5461 134.662 20.0613 135.61 20.4368C136.559 20.8122 137.607 20.9999 138.755 20.9999ZM134.314 12.2432H142.619C142.369 11.3662 141.886 10.701 141.168 10.2476C140.451 9.79422 139.567 9.56753 138.517 9.56753C137.499 9.56753 136.62 9.8128 135.878 10.3033C135.135 10.7939 134.614 11.4405 134.314 12.2432Z" fill="#20C3AF"/>
</svg>
